<?xml version="1.0" encoding="utf-8"?>
<!-- Generator: Adobe Illustrator 23.0.2, SVG Export Plug-In . SVG Version: 6.00 Build 0)  -->
<svg version="1.1" id="Layer_1" xmlns="http://www.w3.org/2000/svg" xmlns:xlink="http://www.w3.org/1999/xlink" x="0px" y="0px"
	 viewBox="0 0 986.41 360.83" style="enable-background:new 0 0 986.41 360.83;" xml:space="preserve">
<style type="text/css">
	.st0{fill:#004028;}
</style>
<g>
	<rect x="539.59" y="125.21" class="st0" width="67.4" height="212.73"/>
	<rect x="440.72" y="22.9" class="st0" width="265.15" height="59.96"/>
	<path class="st0" d="M159.58,280.17c-8.96,7.07-20.82,10.61-35.59,10.61c-16.97,0-32.85-3.22-47.61-9.66
		c-14.78-6.44-28.6-16.1-41.48-28.99L0,295.49c16.34,16.66,35.12,29.31,56.33,37.95c21.22,8.64,43.76,12.97,67.65,12.97
		c32.05,0,58.85-9.26,80.38-27.81c21.52-18.54,32.29-41.64,32.29-69.3c0-22.63-6.92-41.25-20.74-55.86
		c-13.84-14.61-37.24-27.41-70.24-38.42c-29.23-9.74-48.25-17.99-57.04-24.75c-8.8-6.76-13.2-15.32-13.2-25.69
		c0-10.68,4.08-19.09,12.26-25.22c8.17-6.13,19.01-9.19,32.53-9.19c11.94,0,23.49,2.52,34.65,7.54
		c11.15,5.03,22.7,13.04,34.65,24.04l36.77-43.37c-14.78-14.46-31.27-25.46-49.5-33c-18.23-7.54-37.24-11.31-57.04-11.31
		c-31.11,0-56.89,8.8-77.31,26.4c-20.43,17.6-30.64,39.76-30.64,66.47c0,23.89,7.07,43.22,21.22,57.99
		c14.14,14.78,39.44,28.28,75.9,40.54c26.4,9.12,43.68,16.81,51.86,23.1c8.17,6.29,12.25,14.14,12.25,23.57
		C173.01,263.75,168.53,273.1,159.58,280.17"/>
	<rect x="787.18" y="150.37" class="st0" width="199.23" height="60.09"/>
	
		<rect x="775.49" y="16.84" transform="matrix(0.9848 -0.1737 0.1737 0.9848 5.1556 152.6967)" class="st0" width="199.23" height="60.09"/>
	
		<rect x="845.06" y="214.32" transform="matrix(0.1736 -0.9848 0.9848 0.1736 413.9793 1121.2434)" class="st0" width="60.09" height="199.23"/>
	<rect x="302.72" y="22.9" class="st0" width="67.4" height="315.04"/>
</g>
</svg>
